<svg width="1368" height="1368" viewBox="0 0 1368 1368" fill="none" xmlns="http://www.w3.org/2000/svg"><rect width="1368" height="1368" rx="250" fill="#000"/><path d="M288.454 134.391c41.225-2.458 88.93 4.085 138.219 14.176 49.409 10.116 101.9 24.132 152.567 37.183 51.008 13.138 100.198 25.307 144.275 32.229 44.346 6.963 84.24 10.459 120.918 13.261 36.402 2.782 70.388 4.922 101.557 9.196 63.34 8.686 117.9 26.528 168.49 78.154 99.72 101.761 109.35 261.042 91.02 396.386-19.12 141.199-89.4 201.263-181.42 300.124-45.36 48.73-87.96 100.82-133.979 140.67-46.922 40.64-99.716 70.86-168.025 76.34-133.613 10.71-271.004-63.71-356.3-167.41-44.542-54.15-54.2-100.419-57.463-153.936-3.217-52.773-.477-110.021-18.277-194.408-8.777-41.61-24.907-88.707-43.337-138.229-18.227-48.977-38.873-100.742-55.604-149.565-16.747-48.87-30.297-96.768-34.129-139.069-3.811-42.066 1.678-82.165 27.252-111.697 25.389-29.319 63.083-40.952 104.236-43.405Z" fill="#121212" stroke="#fff" stroke-width="38.257"/><circle cx="449.814" cy="508.155" r="142.122" fill="#fff" stroke="#121212" stroke-width="30.74"/><path d="M650.665 408.115c78.902 0 142.759 63.689 142.759 142.122s-63.857 142.122-142.759 142.122c-78.903 0-142.76-63.688-142.76-142.122 0-78.433 63.857-142.122 142.76-142.122Z" fill="#fff" stroke="#121212" stroke-width="30.74"/><path d="M450.452 403.716c26.329 0 47.69 21.627 47.69 48.328 0 26.7-21.361 48.328-47.69 48.328-26.33 0-47.691-21.628-47.691-48.328s21.361-48.328 47.691-48.328Zm200.213 48.459c27.052 0 48.965 21.646 48.965 48.328s-21.913 48.328-48.965 48.328-48.966-21.646-48.966-48.328 21.913-48.328 48.966-48.328Z" fill="#121212" stroke="#121212" stroke-width="1.537"/><rect x="392.771" y="728.984" width="271.875" height="100.414" rx="50.207" transform="rotate(7.177 392.771 728.984)" fill="#000" stroke="#fff" stroke-width="38.257"/><circle cx="685.096" cy="684.775" r="11.477" fill="#fff"/></svg>