<svg width="1024" height="1024" viewBox="0 0 1024 1024" fill="none" xmlns="http://www.w3.org/2000/svg"><mask id="a" style="mask-type:luminance" maskUnits="userSpaceOnUse" x="100" y="100" width="825" height="824"><path d="M924 924H623.852l3.439-.001zm-523.852 0-1.91-.001zM100.001 100.001v300.148c0-11.459 0-22.917.064-34.384.057-9.656.169-19.305.426-28.953.572-21.027 1.811-42.238 5.545-63.039 3.79-21.099 9.978-40.733 19.738-59.901a201.4 201.4 0 0 1 37.073-51.025 201.7 201.7 0 0 1 51.025-37.072c19.168-9.753 38.802-15.949 59.9-19.739 20.793-3.741 42.005-4.973 63.04-5.545 9.648-.265 19.304-.37 28.953-.426 5.729-.037 11.459-.052 17.189-.059l17.194-.005zm523.851 0c11.458 0 22.918-.001 34.384.064 9.656.056 19.304.169 28.952.426 21.027.572 42.238 1.812 63.04 5.545 21.098 3.79 40.733 9.978 59.901 19.739a201.4 201.4 0 0 1 51.025 37.072 201.7 201.7 0 0 1 37.072 51.025c9.752 19.168 15.949 38.802 19.739 59.901 3.742 20.793 4.972 42.004 5.544 63.039.265 9.648.37 19.305.427 28.953.072 11.458.064 22.917.064 34.384v223.703c0 11.459 0 22.918-.064 34.385-.057 9.656-.17 19.304-.427 28.952-.572 21.026-1.81 42.238-5.544 63.039-3.79 21.099-9.979 40.734-19.739 59.901a201.4 201.4 0 0 1-37.072 51.025 201.7 201.7 0 0 1-51.025 37.072c-19.168 9.753-38.803 15.949-59.901 19.739-20.793 3.742-42.005 4.973-63.04 5.544-9.648.266-19.304.37-28.952.427-10.313.065-20.626.064-30.945.063H398.238c-10.822 0-21.644-.002-32.473-.063-9.657-.057-19.305-.169-28.953-.427-21.027-.571-42.239-1.81-63.04-5.544-21.098-3.79-40.732-9.978-59.9-19.739a201.4 201.4 0 0 1-51.025-37.072 201.7 201.7 0 0 1-37.073-51.025c-9.752-19.167-15.948-38.802-19.738-59.901-3.742-20.793-4.973-42.005-5.545-63.039-.265-9.648-.369-19.304-.426-28.952-.072-11.459-.064-22.918-.064-34.385v300.147H100V100h824v.001z" fill="#fff"/></mask><g mask="url(#a)"><path fill="#000" d="M99.195 99.196h823.999v823.999H99.195z"/><path d="M272.712 176.281c25.344-1.512 54.476 2.513 84.262 8.611 29.882 6.118 61.624 14.594 92.086 22.44 30.736 7.917 60.196 15.201 86.537 19.337 26.557 4.17 50.466 6.267 72.528 7.952 21.841 1.669 42.479 2.969 61.403 5.564 38.656 5.301 72.444 16.281 103.725 48.201 61.386 62.641 66.975 160.196 55.9 241.986-11.714 86.503-55.092 123.603-110.281 182.893-27.072 29.084-53.074 60.838-81.001 85.022-28.652 24.814-61.202 43.525-103.431 46.911-82.04 6.58-165.941-39.049-217.912-102.232-27.511-33.445-33.49-62.194-35.487-94.946-1.96-32.154-.289-66.079-10.932-116.536-5.223-24.76-14.849-52.896-25.945-82.709-10.932-29.375-23.429-60.719-33.526-90.185-10.11-29.503-18.4-58.713-20.751-84.672-2.335-25.77.931-51.21 17.344-70.163 16.264-18.781 40.194-25.967 65.481-27.474Z" fill="#121212" stroke="#fff" stroke-width="30.785"/><circle cx="370.136" cy="405.277" r="82.496" fill="#fff" stroke="#121212" stroke-width="24.736"/><path d="M491.116 348.13c45.82 0 82.879 36.981 82.879 82.495s-37.059 82.496-82.879 82.496-82.88-36.982-82.88-82.496 37.06-82.495 82.88-82.495Z" fill="#fff" stroke="#121212" stroke-width="24.736"/><path d="M370.52 342.524c15.771 0 28.57 12.957 28.57 28.955 0 15.999-12.799 28.955-28.57 28.955-15.771-.001-28.57-12.956-28.571-28.955 0-15.998 12.799-28.954 28.571-28.955Zm120.596 29.189c16.211 0 29.339 12.972 29.339 28.955 0 15.984-13.128 28.955-29.339 28.955s-29.339-12.971-29.339-28.955 13.128-28.955 29.339-28.955Z" fill="#121212" stroke="#121212" stroke-width="1.237"/><rect x="339.133" y="542.614" width="156.02" height="52.742" rx="26.371" transform="rotate(7.177 339.133 542.614)" fill="#000" stroke="#fff" stroke-width="30.785"/><circle cx="512.077" cy="511.819" r="9.236" fill="#fff"/></g></svg>