<svg width="1024" height="1024" viewBox="0 0 1024 1024" fill="none" xmlns="http://www.w3.org/2000/svg">
<path d="M205.076 85.5527C237.079 83.6447 274.114 88.7246 312.378 96.5586C350.735 104.412 391.484 115.292 430.817 125.424C470.416 135.623 508.602 145.07 542.819 150.443C577.246 155.849 608.217 158.564 636.69 160.739C664.95 162.898 691.334 164.559 715.531 167.877C764.706 174.62 807.056 188.472 846.33 228.55L848.132 230.409C923.861 309.479 931.111 432.021 916.995 536.27C902.152 645.885 847.59 692.513 776.153 769.258C740.939 807.089 707.868 847.527 672.143 878.466C635.717 910.011 594.732 933.472 541.703 937.725C437.977 946.043 331.319 888.268 265.103 807.768C230.523 765.729 223.026 729.809 220.493 688.263C217.995 647.294 220.123 602.852 206.305 537.342C199.491 505.039 186.969 468.477 172.661 430.032C158.511 392.011 142.483 351.825 129.495 313.923C116.494 275.985 105.975 238.801 103 205.962C100.042 173.305 104.302 142.175 124.155 119.249C143.865 96.4883 173.128 87.4576 205.076 85.5527Z" fill="#121212" stroke="white" stroke-width="29.6996"/>
<circle cx="330.343" cy="375.712" r="110.331" fill="white" stroke="#121212" stroke-width="23.8639"/>
<path d="M486.266 298.049C547.519 298.049 597.092 347.492 597.092 408.381C597.092 469.27 547.519 518.712 486.266 518.712C425.012 518.712 375.439 469.27 375.438 408.381C375.438 347.492 425.012 298.049 486.266 298.049Z" fill="white" stroke="#121212" stroke-width="23.8639"/>
<path d="M330.837 294.634C351.277 294.634 367.86 311.424 367.86 332.152C367.86 352.88 351.277 369.67 330.837 369.67C310.397 369.67 293.814 352.88 293.814 332.152C293.815 311.424 310.397 294.634 330.837 294.634Z" fill="#121212" stroke="#121212" stroke-width="1.1932"/>
<path d="M486.266 332.254C507.267 332.254 524.278 349.058 524.278 369.771C524.278 390.485 507.267 407.29 486.266 407.29C465.264 407.29 448.253 390.485 448.253 369.771C448.253 349.058 465.265 332.254 486.266 332.254Z" fill="#121212" stroke="#121212" stroke-width="1.1932"/>
<rect x="286.058" y="547.144" width="211.061" height="77.9531" rx="38.9765" transform="rotate(7.1769 286.058 547.144)" fill="black" stroke="white" stroke-width="29.6996"/>
<circle cx="512.995" cy="512.825" r="8.90989" fill="white"/>
</svg>
